# xmcd
#
# Track frame offsets: 
#        150
#        13819
#        29119
#        46566
#        63452
#        78151
#        93248
#        107266
#        119834
#        139458
#        152656
#        168554
#        183195
#        197409
#        210688
#        222690
#        244949
#
# Disc length: 4658 seconds
#
# Revision: 2
# Processed by: cddbd v1.5.2PL0 Copyright (c) Steve Scherf et al.
# Submitted via: ExactAudioCopyFreeDBPlugin 1.0
#
DISCID=f1123011
DTITLE=Michael Hirte - Der Mann mit der Mundharmonika 2
DYEAR=2009
DGENRE=Acoustic
TTITLE0=Moon River
TTITLE1=Winnetou
TTITLE2=Über sieben Brücken musst Du geh'n
TTITLE3=Scarborough Fair
TTITLE4=What A Wonderful World
TTITLE5=Lili Marleen
TTITLE6=Barcarole
TTITLE7=Der Mond ist aufgegangen
TTITLE8=My Way
TTITLE9=Danny Boy
TTITLE10=Tränen lügen nicht
TTITLE11=Ännchen von Tharau
TTITLE12=Mama
TTITLE13=You Never Walk Alone
TTITLE14=Weine nicht, kleine Eva
TTITLE15=Hei Pippi Langstrumpf
TTITLE16=Daten-CD
EXTD=
EXTT0=
EXTT1=
EXTT2=
EXTT3=
EXTT4=
EXTT5=
EXTT6=
EXTT7=
EXTT8=
EXTT9=
EXTT10=
EXTT11=
EXTT12=
EXTT13=
EXTT14=
EXTT15=
EXTT16=
PLAYORDER=
